<svg width="40" height="40" viewBox="0 0 40 40" fill="none" xmlns="http://www.w3.org/2000/svg">
<path d="M32.0004 0H8.00037C3.58209 0 0.000366211 3.58172 0.000366211 8V32C0.000366211 36.4183 3.58209 40 8.00037 40H32.0004C36.4186 40 40.0004 36.4183 40.0004 32V8C40.0004 3.58172 36.4186 0 32.0004 0Z" fill="#303237"/>
<path d="M20.0044 8.00265C19.3438 8.00265 18.6831 8.00067 18.0205 8.00265C15.6794 8.01017 14.1014 10.292 14.9216 12.4777C14.9954 12.6757 15.014 12.6788 15.1644 12.5386C16.7242 11.0849 18.5768 10.4397 20.6945 10.6358C22.2816 10.7819 23.6613 11.4353 24.8211 12.5319C24.9798 12.6824 24.9957 12.6796 25.0731 12.4689C25.7865 10.5348 24.6505 8.47549 22.6372 8.05928C22.423 8.01719 22.2051 7.99742 21.9868 8.00027C21.3262 8.00463 20.6655 8.00265 20.0044 8.00265Z" fill="white"/>
<path d="M14.6486 31.9804C14.816 32.0006 24.9937 32.0089 25.3774 31.9871C25.2583 31.9147 25.1607 31.8549 25.0627 31.7982C23.8843 31.1147 23.0895 30.1314 22.734 28.8111C22.6943 28.6618 22.6455 28.636 22.5062 28.6923C21.4129 29.1213 20.2271 29.2614 19.0637 29.099C18.519 29.0323 17.9854 28.8948 17.4765 28.6899C17.365 28.6435 17.3051 28.6467 17.2682 28.7881C16.9 30.1955 16.031 31.2038 14.7684 31.896C14.7279 31.9182 14.6883 31.9412 14.6494 31.965C14.6458 31.9646 14.6482 31.9745 14.6486 31.9804Z" fill="white"/>
<path d="M19.989 20.2329C18.1975 20.2329 16.4064 20.2361 14.6152 20.2281C14.4363 20.2281 14.3946 20.2749 14.4018 20.4456C14.4161 20.7948 14.4172 21.1453 14.4018 21.4942C14.393 21.6867 14.4355 21.7473 14.645 21.7465C17.8376 21.7386 21.0302 21.7367 24.2227 21.7409C24.6128 21.7409 25.0028 21.7318 25.3925 21.7453C25.5639 21.7512 25.6 21.6934 25.5948 21.5346C25.5829 21.1655 25.5837 20.7956 25.5948 20.4258C25.5992 20.2745 25.5631 20.2277 25.4028 20.2277C23.8156 20.2345 22.2285 20.2317 20.6437 20.2317L19.989 20.2329Z" fill="white"/>
<path d="M22.573 18.8017C21.8289 18.3863 21.1567 17.8539 20.5823 17.2251C20.4132 17.0406 20.2502 16.8501 20.0978 16.6525C20.0184 16.5519 19.9839 16.5428 19.9022 16.6493C19.4887 17.189 19.0101 17.6759 18.4773 18.0987C18.144 18.3595 17.7916 18.595 17.423 18.8033L22.573 18.8017Z" fill="white"/>
<path d="M13.0195 20.6729C13.0195 20.2373 13.0159 19.8016 13.0218 19.366C13.0218 19.2452 12.9861 19.2076 12.8631 19.2076C12.4596 19.2108 12.0612 19.2021 11.697 19.4341C11.1537 19.781 10.8911 20.4123 11.043 21.0653C11.1772 21.6427 11.7176 22.1084 12.3282 22.1655C12.5052 22.1817 12.6854 22.169 12.8631 22.1797C12.9869 22.1869 13.0218 22.1366 13.0218 22.0185C13.0151 21.5702 13.0195 21.1216 13.0195 20.6729Z" fill="white"/>
<path d="M27.0246 20.6911C27.0246 21.1128 27.0353 21.535 27.0198 21.956C27.0127 22.1476 27.0817 22.1817 27.2559 22.1829C27.6951 22.1853 28.1094 22.1314 28.4598 21.832C28.9482 21.415 29.1216 20.8024 28.9145 20.1897C28.73 19.6436 28.1804 19.2432 27.5745 19.2128C27.0246 19.1854 27.0246 19.1854 27.0246 19.7224V20.6911Z" fill="white"/>
<path d="M22.0166 16.6698C20.9726 15.6996 20.2691 14.5341 20.0354 13.1112C20.0278 13.0704 20.0235 13.0017 20.0191 12.9306C20.0141 12.8499 20.0089 12.766 19.9985 12.7156C19.988 12.7664 19.9829 12.8513 19.978 12.9325C19.9736 13.0049 19.9694 13.0744 19.9618 13.1144C19.9489 13.1751 19.9377 13.2364 19.9264 13.2976C19.9032 13.4232 19.88 13.5488 19.8437 13.6704C19.2529 15.6505 17.9935 17.0401 16.11 17.8682C15.6176 18.083 15.0885 18.2014 14.5514 18.2171C14.4434 18.2206 14.397 18.1973 14.4038 18.0785C14.4091 17.9856 14.4079 17.8923 14.4067 17.799C14.4058 17.7272 14.4049 17.6555 14.4069 17.5838C14.472 15.4093 15.4354 13.7508 17.3344 12.689C18.7883 11.876 20.3397 11.7877 21.909 12.3469C23.2101 12.8102 24.1922 13.666 24.8766 14.8624C25.4516 15.8671 25.6373 16.9569 25.5932 18.0986C25.5897 18.1992 25.5559 18.2218 25.4651 18.2175C25.2532 18.2091 25.0423 18.1856 24.8338 18.1474C23.7474 17.9371 22.8193 17.4159 22.0166 16.6698Z" fill="white"/>
<path fill-rule="evenodd" clip-rule="evenodd" d="M14.7237 23.1406H19.9768C21.7478 23.1398 23.5193 23.1408 25.2914 23.1437C25.307 23.1438 25.3237 23.1425 25.3406 23.1413C25.4257 23.1348 25.515 23.128 25.4803 23.2903C25.3862 23.7302 25.2577 24.1603 25.0593 24.5619C24.3685 25.9511 23.3047 26.936 21.829 27.4461C20.4946 27.9043 19.1546 27.8817 17.8611 27.3273C16.0958 26.5748 14.9804 25.2442 14.5439 23.3671L14.5437 23.3659C14.4912 23.1406 14.4911 23.1406 14.7237 23.1406ZM20.1307 25.8181C20.0867 25.8179 20.0426 25.8176 19.9986 25.8176C19.9563 25.8176 19.914 25.818 19.8716 25.8184C19.7819 25.8192 19.692 25.8199 19.6018 25.8173C19.2074 25.8101 18.9046 25.5222 18.8876 25.1405C18.8832 24.9568 18.95 24.7786 19.074 24.6429C19.198 24.5072 19.3698 24.4246 19.5534 24.4122C19.8505 24.3948 20.1483 24.3948 20.4454 24.4122C20.6289 24.4244 20.8005 24.507 20.9243 24.6427C21.0481 24.7784 21.1145 24.9566 21.1096 25.1401C21.0925 25.5214 20.7894 25.8105 20.3954 25.8176C20.307 25.819 20.2188 25.8185 20.1307 25.8181Z" fill="white"/>
</svg>
