<svg width="227" height="54" viewBox="0 0 227 54" fill="none" xmlns="http://www.w3.org/2000/svg">
<g clip-path="url(#clip0_17_350)">
<path d="M43.2381 0H10.8095C4.83959 0 0 4.83532 0 10.8V43.2C0 49.1647 4.83959 54 10.8095 54H43.2381C49.208 54 54.0476 49.1647 54.0476 43.2V10.8C54.0476 4.83532 49.208 0 43.2381 0Z" fill="#303237"/>
<path d="M27.0293 10.8036C26.1367 10.8036 25.244 10.801 24.3487 10.8036C21.1854 10.8138 19.0533 13.8942 20.1615 16.8449C20.2612 17.1122 20.2864 17.1164 20.4896 16.9272C22.5972 14.9647 25.1004 14.0936 27.9618 14.3584C30.1063 14.5556 31.9705 15.4377 33.5376 16.9181C33.7521 17.1213 33.7735 17.1175 33.8781 16.8331C34.8421 14.222 33.3071 11.442 30.5868 10.8801C30.2973 10.8233 30.0029 10.7966 29.7079 10.8004C28.8153 10.8063 27.9226 10.8036 27.0293 10.8036Z" fill="white"/>
<path d="M19.7926 43.1735C20.0188 43.2008 33.7708 43.212 34.2893 43.1826C34.1284 43.0848 33.9965 43.0041 33.8641 42.9276C32.2718 42.0048 31.1979 40.6774 30.7176 38.895C30.6639 38.6934 30.598 38.6586 30.4097 38.7346C28.9325 39.3137 27.3303 39.5029 25.7583 39.2836C25.0223 39.1936 24.3013 39.008 23.6137 38.7314C23.463 38.6687 23.3821 38.673 23.3322 38.8639C22.8347 40.7639 21.6605 42.1251 19.9545 43.0596C19.8998 43.0896 19.8463 43.1206 19.7937 43.1527C19.7889 43.1522 19.7921 43.1656 19.7926 43.1735Z" fill="white"/>
<path d="M27.0085 27.3144C24.5879 27.3144 22.1678 27.3187 19.7475 27.3079C19.5058 27.3079 19.4494 27.3711 19.4592 27.6015C19.4785 28.073 19.48 28.5461 19.4592 29.0171C19.4473 29.277 19.5047 29.3588 19.7878 29.3578C24.1016 29.3471 28.4154 29.3445 32.7291 29.3502C33.2562 29.3502 33.7831 29.3379 34.3097 29.3561C34.5413 29.3641 34.5901 29.2861 34.5831 29.0717C34.567 28.5734 34.5681 28.074 34.5831 27.5748C34.589 27.3706 34.5402 27.3074 34.3236 27.3074C32.179 27.3166 30.0345 27.3128 27.8932 27.3128L27.0085 27.3144Z" fill="white"/>
<path d="M30.4999 25.3823C29.4945 24.8215 28.5862 24.1028 27.8101 23.2539C27.5816 23.0048 27.3613 22.7476 27.1554 22.4809C27.0481 22.3451 27.0015 22.3328 26.8911 22.4766C26.3324 23.2052 25.6857 23.8625 24.9658 24.4332C24.5155 24.7853 24.0393 25.1033 23.5412 25.3845L30.4999 25.3823Z" fill="white"/>
<path d="M17.5913 27.9085C17.5913 27.3204 17.5864 26.7322 17.5944 26.1441C17.5944 25.9811 17.5462 25.9303 17.38 25.9303C16.8348 25.9346 16.2964 25.9229 15.8043 26.2361C15.0702 26.7044 14.7154 27.5566 14.9207 28.4382C15.102 29.2177 15.8322 29.8464 16.6572 29.9235C16.8964 29.9453 17.1399 29.9282 17.38 29.9426C17.5472 29.9524 17.5944 29.8844 17.5944 29.725C17.5853 29.1198 17.5913 28.5142 17.5913 27.9085Z" fill="white"/>
<path d="M36.5148 27.933C36.5148 28.5023 36.5293 29.0723 36.5084 29.6406C36.4988 29.8993 36.592 29.9453 36.8274 29.9469C37.4208 29.9502 37.9806 29.8774 38.4541 29.4732C39.114 28.9103 39.3483 28.0833 39.0685 27.2561C38.8192 26.5189 38.0766 25.9783 37.2579 25.9373C36.5148 25.9003 36.5148 25.9003 36.5148 26.6253V27.933Z" fill="white"/>
<path d="M29.7482 22.5043C28.3376 21.1945 27.387 19.6211 27.0712 17.7002C27.061 17.6451 27.0552 17.5524 27.0492 17.4564C27.0425 17.3474 27.0354 17.2342 27.0214 17.1661C27.0072 17.2347 27.0003 17.3493 26.9937 17.459C26.9877 17.5567 26.9821 17.6505 26.9718 17.7045C26.9544 17.7865 26.9392 17.8692 26.924 17.9518C26.8926 18.1214 26.8613 18.291 26.8122 18.4551C26.0139 21.1283 24.3122 23.0042 21.7673 24.1221C21.102 24.4121 20.387 24.572 19.6613 24.5932C19.5154 24.5979 19.4527 24.5664 19.4619 24.4061C19.469 24.2806 19.4674 24.1547 19.4658 24.0287C19.4646 23.9318 19.4634 23.835 19.4661 23.7382C19.554 20.8026 20.8558 18.5637 23.4217 17.1302C25.3862 16.0327 27.4824 15.9135 29.6028 16.6684C31.3609 17.2938 32.6879 18.4492 33.6126 20.0643C34.3896 21.4207 34.6405 22.8919 34.5809 24.4332C34.5762 24.569 34.5305 24.5995 34.4078 24.5937C34.1215 24.5824 33.8365 24.5506 33.5548 24.4991C32.0869 24.2152 30.8328 23.5115 29.7482 22.5043Z" fill="white"/>
<path fill-rule="evenodd" clip-rule="evenodd" d="M19.894 31.2397H26.9919C29.3849 31.2386 31.7785 31.24 34.173 31.2439C34.194 31.244 34.2166 31.2423 34.2394 31.2407C34.3544 31.2319 34.4751 31.2227 34.4282 31.4418C34.301 32.0357 34.1274 32.6163 33.8593 33.1585C32.9259 35.0339 31.4885 36.3635 29.4946 37.0521C27.6916 37.6707 25.881 37.6402 24.1332 36.8918C21.7479 35.8759 20.2408 34.0796 19.651 31.5455L19.6508 31.5439C19.5798 31.2397 19.5797 31.2397 19.894 31.2397ZM27.1999 34.8543C27.1404 34.8541 27.0808 34.8537 27.0214 34.8537C26.9642 34.8537 26.9071 34.8542 26.8498 34.8548C26.7286 34.8558 26.6071 34.8568 26.4852 34.8533C25.9523 34.8435 25.5432 34.4549 25.5202 33.9396C25.5143 33.6916 25.6045 33.451 25.7721 33.2678C25.9396 33.0846 26.1717 32.9731 26.4198 32.9564C26.8213 32.9329 27.2236 32.9329 27.6251 32.9564C27.873 32.9729 28.1049 33.0844 28.2722 33.2676C28.4394 33.4508 28.5292 33.6913 28.5225 33.939C28.4994 34.4538 28.0899 34.8441 27.5575 34.8537C27.4381 34.8556 27.3189 34.8549 27.1999 34.8543Z" fill="white"/>
<path d="M135.851 35.7952H139.619V24.8363L145.077 34.771L150.51 24.8363V35.7952H154.303V18.2047H150.51L145.077 28.1394L139.619 18.2047H135.851V35.7952Z" fill="#303237"/>
<path d="M222.58 35.7952H226.834L219.658 18.2047H215.43L208.254 35.7952H212.483L213.61 33.0299H221.452L222.58 35.7952ZM213.61 33.0299L217.531 23.4025L221.452 33.0299H213.61Z" fill="white"/>
<path d="M73.0437 35.7952H76.8367V21.6101H82.3209V18.2047H67.5595V21.6101H73.0437V35.7952Z" fill="white"/>
<path d="M101.764 18.2047V25.1179H93.7422V18.2047H89.975V35.7952H93.7422V28.5234H101.764V35.7952H105.531V18.2047H101.764Z" fill="white"/>
<path d="M127.703 18.2047V21.6101H117.939V25.1179H123.504V28.5234H117.939V32.3897H127.703V35.7952H114.146V18.2047H127.703Z" fill="white"/>
<path d="M135.842 35.7952H139.609V24.8363L145.068 34.771L150.501 24.8363V35.7952H154.294V18.2047H150.501L145.068 28.1394L139.609 18.2047H135.842V35.7952Z" fill="white"/>
<path d="M172.111 35.7952H168.292V29.4452L161.398 18.2047H165.806L170.188 25.9117L174.749 18.2047H178.979L172.111 29.4452V35.7952Z" fill="white"/>
<path fill-rule="evenodd" clip-rule="evenodd" d="M186.112 35.7952H192.415C198.336 35.7952 202.538 32.1336 202.538 26.9871C202.538 21.8405 198.336 18.2047 192.415 18.2047H186.112V21.6361H189.879V26.565H186.112V35.7952ZM189.879 32.3641V21.6361L192.903 21.6357C196.259 21.6357 198.643 23.8634 198.643 26.9871C198.643 30.1366 196.259 32.3641 192.903 32.3641H189.879Z" fill="white"/>
</g>
<defs>
<clipPath id="clip0_17_350">
<rect width="227" height="54" fill="white"/>
</clipPath>
</defs>
</svg>
